<?xml version="1.0" encoding="UTF-8" standalone="no"?>
<!-- Created with Inkscape (http://www.inkscape.org/) -->

<svg
   width="210mm"
   height="297mm"
   viewBox="0 0 210 297"
   version="1.1"
   id="svg1"
   xml:space="preserve"
   inkscape:version="1.3 (0e150ed6c4, 2023-07-21)"
   sodipodi:docname="epa-swmm_inkscape.svg"
   xmlns:inkscape="http://www.inkscape.org/namespaces/inkscape"
   xmlns:sodipodi="http://sodipodi.sourceforge.net/DTD/sodipodi-0.dtd"
   xmlns="http://www.w3.org/2000/svg"
   xmlns:svg="http://www.w3.org/2000/svg"><sodipodi:namedview
     id="namedview1"
     pagecolor="#ffffff"
     bordercolor="#000000"
     borderopacity="0.25"
     inkscape:showpageshadow="2"
     inkscape:pageopacity="0.0"
     inkscape:pagecheckerboard="0"
     inkscape:deskcolor="#d1d1d1"
     inkscape:document-units="mm"
     inkscape:zoom="0.70822811"
     inkscape:cx="442.65399"
     inkscape:cy="455.36176"
     inkscape:window-width="1920"
     inkscape:window-height="991"
     inkscape:window-x="2391"
     inkscape:window-y="-9"
     inkscape:window-maximized="1"
     inkscape:current-layer="layer1" /><defs
     id="defs1"><inkscape:path-effect
       effect="mirror_symmetry"
       start_point="83.945935,168.51732"
       end_point="83.945935,218.63"
       center_point="83.945935,193.57366"
       id="path-effect1"
       is_visible="true"
       lpeversion="1.2"
       lpesatellites=""
       mode="free"
       discard_orig_path="false"
       fuse_paths="false"
       oposite_fuse="false"
       split_items="false"
       split_open="false"
       link_styles="false" /></defs><g
     inkscape:label="Layer 1"
     inkscape:groupmode="layer"
     id="layer1"><path
       id="path1-3"
       style="fill:#000080;fill-opacity:1;stroke-width:2.1941;stroke-linecap:round;stroke-linejoin:round"
       d="m 245.16968,79.45817 a 46.137737,42.163441 51.454356 0 0 -1.89808,0.25631 56.037735,61.8283 0 0 0 51.96996,49.78094 46.137737,42.163441 51.454356 0 0 -10.73785,-31.75 46.137737,42.163441 51.454356 0 0 -39.33403,-18.28725 z" /><rect
       style="opacity:1;fill:#00ffff;fill-opacity:1;stroke:#000080;stroke-width:4.087;stroke-linecap:round;stroke-linejoin:miter;stroke-dasharray:none;stroke-opacity:1"
       id="rect4"
       width="100.78056"
       height="100.78056"
       x="63.440479"
       y="91.177559" /><g
       id="g4"
       inkscape:export-filename="swmm-custom.svg"
       inkscape:export-xdpi="96"
       inkscape:export-ydpi="96"
       transform="translate(8.830761,70.905763)"><g
         id="g5"><path
           id="path1"
           style="opacity:1;fill:#000080;fill-opacity:1;stroke-width:1.18367;stroke-linecap:round;stroke-linejoin:round"
           inkscape:transform-center-x="0.37358458"
           inkscape:transform-center-y="-16.064154"
           d="m -104.99979,-19.999813 a 31.754717,31.754717 0 0 0 15.877065,-4.25452 31.754717,31.754717 0 0 0 15.877583,-27.500131 H -97.80695 v 12.595097 a 7.5,3.5 0 0 1 -7.4998,3.500045 7.5,3.5 0 0 1 -7.50032,-3.500045 v -12.595097 h -23.94789 a 31.754717,31.754717 0 0 0 15.87758,27.500131 31.754717,31.754717 0 0 0 15.87759,4.25452 z"
           transform="scale(-1)" /><path
           id="path1-0"
           style="opacity:1;fill:#000080;fill-opacity:1;stroke-width:1.18367;stroke-linecap:round;stroke-linejoin:round"
           inkscape:transform-center-x="-0.37358491"
           inkscape:transform-center-y="16.064155"
           d="m 73.491121,55.88186 a 31.754717,31.754717 0 0 0 15.631604,23.746871 31.754717,31.754717 0 0 0 31.754655,0 31.754717,31.754717 0 0 0 15.62798,-23.696745 8.4704237,7.2606335 0 0 1 -2.52284,1.910478 8.4704237,7.2606335 0 0 1 -8.47028,0 8.4704237,7.2606335 0 0 1 -1.94769,-1.34307 8.4704237,7.2606335 0 0 1 -1.9482,1.34307 8.4704237,7.2606335 0 0 1 -8.47028,0 8.4704237,7.2606335 0 0 1 -1.94821,-1.34307 8.4704237,7.2606335 0 0 1 -1.9482,1.34307 8.4704237,7.2606335 0 0 1 -8.47028,0 8.4704237,7.2606335 0 0 1 -1.948203,-1.34307 8.4704237,7.2606335 0 0 1 -1.947685,1.34307 8.4704237,7.2606335 0 0 1 -8.470801,0 8.4704237,7.2606335 0 0 1 -1.947684,-1.34307 8.4704237,7.2606335 0 0 1 -1.948202,1.34307 8.4704237,7.2606335 0 0 1 -8.470284,0 8.4704237,7.2606335 0 0 1 -2.5554,-1.960604 z" /><path
           id="path1-3-5"
           style="opacity:1;fill:#000080;fill-opacity:1;stroke-width:2.1941;stroke-linecap:round;stroke-linejoin:round"
           d="m 33.846464,168.59275 c 14.730385,-0.8827 29.549974,6.00725 39.334033,18.28725 7.293505,9.15875 11.132087,20.50879 10.737845,31.75 -25.606077,-1.51956 -47.010362,-22.02228 -51.969954,-49.78094 0.62951,-0.1 1.262359,-0.18545 1.898076,-0.25631 z m 100.198946,0 C 119.31502,167.71005 104.49543,174.6 94.711373,186.88 c -7.293505,9.15875 -11.132087,20.50879 -10.737845,31.75 25.606072,-1.51956 47.010362,-22.02228 51.969952,-49.78094 -0.62951,-0.1 -1.26236,-0.18545 -1.89807,-0.25631 z"
           inkscape:path-effect="#path-effect1"
           inkscape:original-d="M 33.846464,168.59275 A 46.137737,42.163441 51.454356 0 1 73.180497,186.88 46.137737,42.163441 51.454356 0 1 83.918342,218.63 56.037735,61.8283 0 0 1 31.948388,168.84906 46.137737,42.163441 51.454356 0 1 33.846464,168.59275 Z"
           transform="translate(21.054065,-97.305658)" /></g></g><path
       style="opacity:1;fill:#00802c;fill-opacity:1;stroke-width:1.32292;stroke-linecap:round;stroke-linejoin:round"
       id="path2-6"
       sodipodi:type="arc"
       sodipodi:cx="252.56952"
       sodipodi:cy="167.49576"
       sodipodi:rx="12.019481"
       sodipodi:ry="5.019124"
       sodipodi:start="0"
       sodipodi:end="3.1415927"
       sodipodi:arc-type="slice"
       d="m 264.589,167.49576 a 12.019481,5.019124 0 0 1 -6.00974,4.34669 12.019481,5.019124 0 0 1 -12.01948,0 12.019481,5.019124 0 0 1 -6.00974,-4.34669 h 12.01948 z" /></g></svg>
