<?xml version="1.0" encoding="UTF-8" standalone="no"?>
<!-- Created with Inkscape (http://www.inkscape.org/) -->

<svg
   width="156.87218mm"
   height="115.75731mm"
   viewBox="0 0 156.87218 115.75731"
   version="1.1"
   id="svg1"
   xml:space="preserve"
   inkscape:version="1.3 (0e150ed6c4, 2023-07-21)"
   sodipodi:docname="swan_logo.svg"
   xmlns:inkscape="http://www.inkscape.org/namespaces/inkscape"
   xmlns:sodipodi="http://sodipodi.sourceforge.net/DTD/sodipodi-0.dtd"
   xmlns="http://www.w3.org/2000/svg"
   xmlns:svg="http://www.w3.org/2000/svg"><sodipodi:namedview
     id="namedview1"
     pagecolor="#ffffff"
     bordercolor="#000000"
     borderopacity="0.25"
     inkscape:showpageshadow="2"
     inkscape:pageopacity="0.0"
     inkscape:pagecheckerboard="0"
     inkscape:deskcolor="#d1d1d1"
     inkscape:document-units="mm"
     inkscape:zoom="0.25"
     inkscape:cx="-156"
     inkscape:cy="938"
     inkscape:window-width="1920"
     inkscape:window-height="991"
     inkscape:window-x="-9"
     inkscape:window-y="-9"
     inkscape:window-maximized="1"
     inkscape:current-layer="layer1"
     showgrid="false"
     showguides="true"><sodipodi:guide
       position="32.835038,302.62169"
       orientation="0.70710678,0.70710678"
       id="guide11"
       inkscape:locked="false"
       inkscape:label=""
       inkscape:color="rgb(0,134,229)" /></sodipodi:namedview><defs
     id="defs1" /><g
     inkscape:label="Layer 1"
     inkscape:groupmode="layer"
     id="layer1"
     transform="translate(-26.56392,-151.87013)"><path
       id="rect4-0-1-9-8-1"
       style="fill:#1a1a1a;fill-opacity:1;fill-rule:evenodd;stroke:#1a1a1a;stroke-width:0.005;stroke-linecap:round;stroke-linejoin:round;stroke-dasharray:none;stroke-opacity:1"
       d="m 68.98951,156.71486 c -7.1011,8.85009 -6.54754,21.7372 1.66845,29.95319 l 1.86687,1.86687 70.71077,70.71077 1.76784,1.76784 c 8.81395,8.81395 23.00567,8.814 31.81968,-10e-6 8.81401,-8.81402 8.81396,-23.00574 1e-5,-31.81968 l -1.76783,-1.76784 -49.49741,-49.4974 -0.5152,-0.5152 c -0.69367,-0.69367 -0.69408,-1.8112 -3.8e-4,-2.50489 l 1.03118,-1.03118 c 0.6937,-0.6937 1.81121,-0.69328 2.50489,3.9e-4 l 0.51519,0.5152 17.67803,17.67802 c 7.10101,-8.85011 6.54747,-21.73726 -1.6684,-29.95314 l -1.86726,-1.86725 -3.6e-4,3.6e-4 -1.76784,-1.76783 c -8.81395,-8.81395 -23.00573,-8.81398 -31.81969,-2e-5 -8.81401,8.814 -8.81394,23.00576 0,31.8197 l 1.76784,1.76784 49.4974,49.4974 0.51556,0.51556 c 0.69374,0.69374 0.69372,1.81085 3e-5,2.50453 l -1.03118,1.03118 c -0.6937,0.6937 -1.8108,0.69372 -2.50454,-3e-5 l -0.51555,-0.51555 -70.71078,-70.71077 3.7e-4,-3.7e-4 z m -24.74869,38.89141 14.14201,14.14201 3.53385,3.53386 h -7.06771 v 0.001 H 26.56642 l 14.14055,14.14054 -0.002,0.002 40.1992,40.19921 28.28407,5e-5 -14.14206,-14.14206 3.6e-4,-3.6e-4 -20.20042,-20.20042 7.07029,-3.5e-4 34.34284,34.34283 28.28399,-10e-6 -14.14199,-14.14199 3.7e-4,-3.7e-4 -57.8766,-57.87659 -3.6e-4,3.7e-4 z"
       inkscape:export-filename=".\nedsantiago-sharp-logo.png"
       inkscape:export-xdpi="96"
       inkscape:export-ydpi="96" /></g></svg>
